<svg width="24" height="24" viewBox="0 0 24 24" fill="none" xmlns="http://www.w3.org/2000/svg">
<path d="M4 11.7261C4 11.3464 4.28215 11.0326 4.64823 10.9829L4.75 10.9761L19.75 10.9761C20.1642 10.9761 20.5 11.3119 20.5 11.7261C20.5 12.1058 20.2178 12.4196 19.8518 12.4692L19.75 12.4761L4.75 12.4761C4.33579 12.4761 4 12.1403 4 11.7261Z" fill="#4285F4"/>
<path d="M13.171 6.23296C12.8775 5.9407 12.8765 5.46582 13.1687 5.1723C13.4344 4.90546 13.851 4.88036 14.1451 5.09758L14.2294 5.17002L20.2794 11.194C20.547 11.4605 20.5714 11.8786 20.3524 12.1727L20.2794 12.2569L14.2294 18.2819C13.9359 18.5742 13.4611 18.5732 13.1688 18.2797C12.9031 18.0129 12.8797 17.5962 13.0982 17.303L13.171 17.2191L18.687 11.7252L13.171 6.23296Z" fill="#4285F4"/>
</svg>
