<?xml version="1.0" standalone="no"?>
<!DOCTYPE svg PUBLIC "-//W3C//DTD SVG 20010904//EN"
 "http://www.w3.org/TR/2001/REC-SVG-20010904/DTD/svg10.dtd">
<svg version="1.0" xmlns="http://www.w3.org/2000/svg"
 width="500.000000pt" height="500.000000pt" viewBox="0 0 500.000000 500.000000"
 preserveAspectRatio="xMidYMid meet">

<g transform="translate(0.000000,500.000000) scale(0.100000,-0.100000)"
fill="#000000" stroke="none">
<path d="M2335 4114 c-182 -27 -343 -79 -491 -158 -413 -220 -691 -644 -724
-1104 -31 -438 109 -813 415 -1111 267 -260 591 -391 965 -391 386 0 709 135
980 409 168 169 277 347 340 551 52 171 63 253 57 465 -5 216 -24 313 -95 487
-171 417 -556 737 -1002 833 -73 15 -380 29 -445 19z m222 -680 c40 -20 62
-49 74 -101 10 -46 -17 -112 -57 -138 -95 -62 -220 5 -218 116 1 107 103 169
201 123z m-364 -48 c102 -43 117 -189 25 -246 -48 -31 -128 -24 -168 15 -55
53 -63 125 -19 187 38 52 102 70 162 44z m726 -14 c46 -34 64 -68 63 -117 -2
-145 -190 -186 -265 -58 -50 86 42 212 143 198 19 -2 46 -13 59 -23z m-899
-202 c29 -41 70 -60 127 -60 40 0 55 6 88 33 22 17 48 33 60 33 11 1 34 8 52
15 29 12 36 11 71 -9 22 -12 56 -22 77 -22 21 0 55 10 77 22 35 20 42 21 71 9
18 -8 42 -14 55 -13 12 0 22 -4 22 -9 0 -4 17 -20 37 -34 69 -47 177 -27 213
40 7 14 19 25 26 25 23 0 99 -37 132 -64 38 -33 41 -60 7 -82 -23 -15 -27 -15
-72 12 -27 15 -42 20 -35 12 20 -25 80 -50 102 -43 11 4 24 15 30 25 6 11 26
20 54 24 24 4 74 25 111 47 58 35 71 40 91 30 17 -8 24 -19 24 -40 0 -74 -225
-164 -325 -131 -20 7 -39 9 -42 6 -15 -15 45 -327 114 -589 66 -257 73 -292
62 -318 -21 -51 -82 -66 -119 -29 -21 21 -27 42 -90 290 -60 235 -76 285 -91
285 -11 0 -15 -52 -19 -278 -5 -278 -5 -279 -29 -298 -44 -36 -100 -19 -121
35 -6 17 -10 141 -10 316 0 262 -2 304 -25 447 -16 95 -32 164 -41 174 -14 15
-13 19 8 33 12 9 18 16 12 16 -6 0 -23 -11 -38 -25 l-26 -24 0 -474 c0 -462 0
-474 -20 -495 -27 -29 -84 -30 -108 -2 -15 18 -18 53 -22 283 -7 349 -23 350
-30 1 -5 -279 -7 -286 -58 -305 -30 -12 -74 11 -90 46 -9 19 -12 151 -12 489
0 428 -1 464 -17 478 -32 27 -49 33 -29 10 17 -20 18 -24 4 -39 -10 -12 -25
-85 -42 -203 -23 -164 -26 -216 -26 -462 l0 -277 -26 -20 c-37 -29 -78 -27
-103 5 -20 26 -21 39 -21 296 0 233 -2 269 -15 275 -25 9 -14 42 -115 -352
-54 -215 -70 -245 -127 -245 -34 0 -73 36 -73 69 0 13 34 157 75 318 64 250
124 558 111 570 -2 3 -24 -1 -47 -7 -75 -20 -195 10 -278 70 -32 24 -41 36
-41 60 0 22 6 33 24 41 20 10 33 5 90 -29 37 -22 86 -44 109 -48 23 -3 47 -14
54 -24 7 -10 23 -20 35 -23 20 -6 19 -3 -7 17 -45 36 -28 71 54 113 34 18 69
33 76 33 8 0 23 -14 35 -30z"/>
<path d="M1915 3060 c-16 -11 -25 -20 -19 -20 11 0 64 39 54 40 -3 0 -18 -9
-35 -20z"/>
</g>
</svg>
