<svg width="50" height="51" viewBox="0 0 50 51" fill="none" xmlns="http://www.w3.org/2000/svg">
<g clip-path="url(#clip0_477_5657)">
<path d="M49 25.7621C49 38.9613 38.2584 49.6678 25 49.6678C11.7416 49.6678 1 38.9613 1 25.7621C1 12.5629 11.7416 1.85645 25 1.85645C38.2584 1.85645 49 12.5629 49 25.7621Z" fill="#EFEFF0" stroke="#AFB1B6" stroke-width="2"/>
<path d="M33.375 20.5735C33.375 25.1758 29.629 28.9131 25 28.9131C20.371 28.9131 16.625 25.1758 16.625 20.5735C16.625 15.9712 20.371 12.2339 25 12.2339C29.629 12.2339 33.375 15.9712 33.375 20.5735Z" stroke="#AFB1B6" stroke-width="2"/>
<path fill-rule="evenodd" clip-rule="evenodd" d="M5.23267 41.0119C9.55048 35.5625 16.7932 31.9883 24.9995 31.9883C33.2059 31.9883 40.4486 35.5625 44.7664 41.0119C44.3457 41.5523 43.9032 42.0749 43.4402 42.5786C39.5749 37.4635 32.8602 33.9883 24.9995 33.9883C17.1389 33.9883 10.4241 37.4635 6.55883 42.5786C6.09582 42.0749 5.65333 41.5523 5.23267 41.0119Z" fill="#AFB1B6"/>
</g>
<defs>
<clipPath id="clip0_477_5657">
<rect width="50" height="49.8113" fill="white" transform="translate(0 0.856445)"/>
</clipPath>
</defs>
</svg>
